<svg width="34" height="32" viewBox="0 0 34 32" fill="none" xmlns="http://www.w3.org/2000/svg">
<path d="M23.04 31C24.1998 31 25.14 30.0598 25.14 28.9C25.14 27.7402 24.1998 26.8 23.04 26.8C21.8802 26.8 20.94 27.7402 20.94 28.9C20.94 30.0598 21.8802 31 23.04 31Z" stroke="#0F1111" stroke-width="2" stroke-miterlimit="10"/>
<path d="M13.68 31C14.8398 31 15.78 30.0598 15.78 28.9C15.78 27.7402 14.8398 26.8 13.68 26.8C12.5202 26.8 11.58 27.7402 11.58 28.9C11.58 30.0598 12.5202 31 13.68 31Z" stroke="#0F1111" stroke-width="2" stroke-miterlimit="10"/>
<path d="M27.08 24.08H9.69L9.09 18.22L7.32 3L1 2.64" stroke="#0F1111" stroke-width="2" stroke-linecap="round" stroke-linejoin="round"/>
<path d="M29.38 6.68H32.2L27.8 20.68H9.37L7.75 6.68H9.96" stroke="#0F1111" stroke-width="2" stroke-linecap="round" stroke-linejoin="round"/>
<path d="M19.68 16.26C23.8939 16.26 27.31 12.8439 27.31 8.63C27.31 4.41607 23.8939 1 19.68 1C15.4661 1 12.05 4.41607 12.05 8.63C12.05 12.8439 15.4661 16.26 19.68 16.26Z" stroke="#0F1111" stroke-width="2" stroke-linecap="round" stroke-linejoin="round"/>
<path d="M17.85 5.37V11.89" stroke="#0F1111" stroke-width="2" stroke-linecap="round" stroke-linejoin="round"/>
<path d="M21.51 5.37V11.89" stroke="#0F1111" stroke-width="2" stroke-linecap="round" stroke-linejoin="round"/>
</svg>
